<?xml version="1.0" encoding="UTF-8" standalone="no"?> <svg xmlns="http://www.w3.org/2000/svg" xmlns:xlink="http://www.w3.org/1999/xlink" xmlns:serif="http://www.serif.com/" width="100%" height="100%" viewBox="0 0 200 123" xml:space="preserve" style="fill-rule:evenodd;clip-rule:evenodd;stroke-linejoin:round;stroke-miterlimit:2;"><path d="M178.059,97.743c-0.341,0 -0.673,-0.175 -0.86,-0.49c-0.922,-1.568 -1.831,-5.396 1.343,-8.658c0.384,-0.396 1.018,-0.407 1.414,-0.02c0.396,0.385 0.405,1.018 0.02,1.414c-2.884,2.965 -1.127,6.12 -1.051,6.253c0.274,0.478 0.113,1.089 -0.363,1.365c-0.158,0.092 -0.332,0.136 -0.503,0.136Z" style="fill:#018a3d;fill-rule:nonzero;"></path><path d="M188.465,114.247c-3.296,0 -6.841,-1.552 -10.298,-3.063l-0.191,-0.073c-3.712,-1.105 -5.757,-1.713 -8.736,0.635c-0.433,0.343 -1.061,0.269 -1.404,-0.166c-0.343,-0.434 -0.267,-1.062 0.166,-1.404c3.793,-2.99 6.625,-2.148 10.544,-0.982l0.142,0.041c0.039,0.012 0.078,0.027 0.116,0.043l0.166,0.073c4.457,1.951 8.666,3.793 12.027,2.433c2.019,-0.815 3.636,-2.756 4.944,-5.931c2.623,-6.366 2.92,-9.735 -2.257,-12.873c-1.989,-1.214 -4.86,-1.709 -8.405,-2.23c-11.045,-1.616 -12.909,0.006 -14.532,4.091c-0.8,2.026 -0.83,4.271 -0.082,6.321c0.19,0.519 -0.077,1.093 -0.595,1.282c-0.521,0.188 -1.094,-0.078 -1.284,-0.596c-0.916,-2.51 -0.88,-5.26 0.102,-7.743c2.264,-5.702 6.006,-6.897 16.682,-5.334c3.773,0.554 6.843,1.09 9.153,2.5c6.946,4.212 5.499,9.441 3.067,15.343c-1.523,3.699 -3.5,5.997 -6.045,7.025c-1.054,0.426 -2.153,0.608 -3.28,0.608Z" style="fill:#018a3d;fill-rule:nonzero;"></path><path d="M144.773,114.007l-0.022,0c-14.529,-0.297 -52.629,-1.042 -54.435,-0.862c-2.879,0.249 -5.264,-1.902 -5.553,-5.033c-0.311,-3.342 4.228,-5.276 4.747,-5.485c0.116,-0.047 0.239,-0.072 0.365,-0.073c0.054,0 5.579,-0.06 18.488,-0.804c49.65,-2.868 51.148,-0.233 52.884,2.814c0.274,0.481 0.106,1.091 -0.375,1.365c-0.48,0.273 -1.09,0.104 -1.363,-0.374c-1.168,-2.052 -2.619,-4.603 -51.031,-1.809c-11.607,0.669 -17.281,0.787 -18.383,0.805c-1.067,0.474 -3.481,1.872 -3.341,3.377c0.191,2.064 1.583,3.394 3.378,3.224c2.28,-0.211 52.523,0.812 54.66,0.855c0.553,0.012 0.99,0.468 0.98,1.02c-0.011,0.545 -0.457,0.98 -0.999,0.98Z" style="fill:#018a3d;fill-rule:nonzero;"></path><path d="M151.218,122.614l-38.733,-1.189c-0.14,-0.007 -12.648,-0.584 -20.863,-1.619c-7.955,-1 -79.625,0.311 -82.774,0.369c-2.304,0.496 -6.851,0.024 -8.292,-5.231c-0.563,-2.036 -0.978,-4.36 0.195,-6.148c0.937,-1.426 2.677,-2.275 5.481,-2.669l62.365,-5.394l41.088,-5.354c1.965,-0.268 48.361,-6.411 57.029,6.495c0.309,0.458 0.187,1.08 -0.271,1.388c-0.458,0.308 -1.08,0.185 -1.389,-0.273c-7.979,-11.878 -54.635,-5.692 -55.106,-5.628l-41.136,5.36l-62.354,5.392c-2.109,0.299 -3.446,0.883 -4.035,1.781c-0.584,0.891 -0.566,2.244 0.06,4.52c1.328,4.836 5.823,3.833 6.016,3.789c0.068,-0.015 0.138,-0.024 0.211,-0.026c3.055,-0.057 74.928,-1.393 83.162,-0.356c8.135,1.026 20.565,1.599 20.689,1.605l38.634,1.19c0.071,-0.007 15.623,-0.986 15.082,-11.043c-0.007,-0.121 0.007,-0.241 0.045,-0.356c-0.01,0.027 0.007,-0.159 -0.186,-0.5c-0.272,-0.481 -0.102,-1.091 0.379,-1.362c0.48,-0.273 1.091,-0.103 1.363,0.377c0.469,0.83 0.457,1.511 0.402,1.863c0.409,9.538 -10.964,12.688 -17.062,13.019Z" style="fill:#018a3d;fill-rule:nonzero;"></path><path d="M178.059,97.743c-0.341,0 -0.673,-0.175 -0.86,-0.49c-0.922,-1.568 -1.831,-5.396 1.343,-8.658c0.384,-0.396 1.018,-0.407 1.414,-0.02c0.396,0.385 0.405,1.018 0.02,1.414c-2.884,2.965 -1.127,6.12 -1.051,6.253c0.274,0.478 0.113,1.089 -0.363,1.365c-0.158,0.092 -0.332,0.136 -0.503,0.136Z" style="fill:#018a3d;fill-rule:nonzero;"></path><path d="M189.366,106.093c-0.142,0 -0.285,-0.03 -0.417,-0.091c-0.049,-0.023 -4.981,-2.237 -9.063,-0.791c-0.522,0.183 -1.094,-0.089 -1.277,-0.608c-0.184,-0.521 0.088,-1.093 0.609,-1.277c3.572,-1.265 7.474,-0.264 9.385,0.397c1.267,-6.117 4.455,-11.509 4.599,-11.75c0.282,-0.474 0.897,-0.629 1.37,-0.346c0.475,0.282 0.63,0.896 0.347,1.37c-0.035,0.06 -3.567,6.043 -4.565,12.254c-0.05,0.309 -0.241,0.576 -0.517,0.724c-0.146,0.078 -0.308,0.118 -0.471,0.118Z" style="fill:#018a3d;fill-rule:nonzero;"></path><path d="M98.64,31.552l-0.184,-0.001c-5.402,-0.061 -10.058,-6.317 -11.322,-15.214c-0.067,-0.479 -0.156,-1.017 -0.25,-1.592c-0.498,-3.021 -1.117,-6.783 -0.061,-8.926c2.429,-4.947 6.155,-5.629 9.821,-5.629c0.59,0 1.328,-0.037 2.148,-0.078c1.06,-0.052 2.261,-0.112 3.474,-0.112c2.498,0 5.997,0.228 7.534,2.196c1.994,2.555 1.585,9.254 0.847,16.115l-0.025,0.221c-0.925,8.639 -4.957,13.02 -11.982,13.02Zm3.626,-29.552c-1.163,0 -2.338,0.059 -3.374,0.109c-0.86,0.043 -1.631,0.081 -2.248,0.081c-3.588,0 -6.182,0.755 -8.027,4.512c-0.772,1.569 -0.163,5.27 0.24,7.719c0.097,0.59 0.188,1.143 0.257,1.635c1.104,7.771 5.041,13.447 9.364,13.495l0.162,0.001c5.916,0 9.184,-3.674 9.994,-11.233l0.024,-0.222c0.365,-3.393 1.335,-12.403 -0.434,-14.67c-0.739,-0.947 -2.744,-1.427 -5.958,-1.427Z" style="fill:#692a5a;fill-rule:nonzero;"></path><path d="M80.685,93.986c-0.524,0 -0.964,-0.408 -0.996,-0.938c-0.096,-1.547 -0.125,-3.472 -0.153,-5.333c-0.029,-1.983 -0.06,-4.033 -0.171,-5.64c-0.247,-3.637 -0.502,-7.274 -0.765,-10.908l-0.103,-1.434c-0.144,-2.005 -0.289,-4.012 -0.436,-6.018c-1.077,4.278 -2.509,9.904 -3.527,13.675c-2.715,10.068 -16.669,10.381 -22.627,10.515c-0.734,0.017 -1.343,0.03 -1.787,0.06c-3.955,0.259 -6.425,-0.658 -7.352,-2.75c-0.975,-2.202 -0.821,-4.414 0.419,-6.069c1.027,-1.369 2.666,-2.092 4.279,-1.872c10.097,1.347 13.62,-0.831 14.799,-2.893c2.656,-4.648 4.353,-11.726 5.851,-17.971c1.289,-5.376 2.403,-10.019 3.929,-12.479c4.818,-7.763 16.182,-10.443 18.54,-10.924l0.792,-1.139c0.316,-0.453 0.939,-0.564 1.392,-0.25c0.453,0.316 0.565,0.94 0.25,1.393l-1.024,1.471c-0.152,0.218 -0.384,0.368 -0.646,0.414c-0.128,0.022 -12.805,2.354 -17.605,10.089c-1.356,2.186 -2.487,6.901 -3.683,11.892c-1.529,6.375 -3.261,13.601 -6.06,18.496c-2.156,3.775 -7.81,5.083 -16.799,3.884c-0.904,-0.116 -1.822,0.298 -2.414,1.088c-0.795,1.059 -0.865,2.54 -0.191,4.059c0.55,1.242 2.359,1.773 5.389,1.565c0.465,-0.031 1.105,-0.046 1.877,-0.064c5.509,-0.123 18.415,-0.413 20.742,-9.037c1.824,-6.766 4.994,-19.549 5.026,-19.677c0.118,-0.476 0.561,-0.801 1.057,-0.755c0.489,0.042 0.876,0.434 0.911,0.924l0.328,4.454c0.191,2.589 0.378,5.183 0.564,7.776l0.104,1.432c0.262,3.638 0.518,7.277 0.766,10.916c0.114,1.66 0.144,3.738 0.175,5.748c0.028,1.837 0.055,3.739 0.149,5.239c0.033,0.551 -0.386,1.025 -0.938,1.059c-0.02,0.001 -0.041,0.002 -0.062,0.002Z" style="fill:#692a5a;fill-rule:nonzero;"></path><path d="M117.011,89.034c-0.02,0 -0.041,-0.001 -0.063,-0.002c-0.55,-0.034 -0.97,-0.508 -0.935,-1.059c0.089,-1.452 0.118,-2.171 0.144,-2.836c0.033,-0.782 0.061,-1.491 0.178,-3.199c0.248,-3.639 0.504,-7.278 0.766,-10.916l0.103,-1.432c0.188,-2.593 0.373,-5.187 0.567,-7.778l0.32,-4.355c0.033,-0.449 0.365,-0.871 0.809,-0.958c0.443,-0.079 0.892,0.085 1.091,0.489c0.049,0.1 4.944,9.985 8.723,15.829c5.447,8.423 16.909,9.057 21.805,9.329c0.353,0.019 0.668,0.037 0.939,0.054c3.03,0.206 4.839,-0.321 5.39,-1.564c0.673,-1.52 0.602,-3 -0.192,-4.06c-0.592,-0.791 -1.514,-1.211 -2.415,-1.088c-2.674,0.364 -15.103,-0.915 -18.377,-6.641c-2.603,-4.557 -4.885,-9.492 -6.898,-13.847c-1.885,-4.075 -3.512,-7.595 -5.014,-10.015c-4.808,-7.748 -17.476,-10.067 -17.603,-10.089c-0.263,-0.046 -0.496,-0.195 -0.648,-0.414l-1.024,-1.471c-0.314,-0.453 -0.203,-1.077 0.25,-1.393c0.455,-0.314 1.078,-0.203 1.393,0.25l0.791,1.139c2.359,0.481 13.723,3.161 18.541,10.924c1.566,2.524 3.216,6.094 5.128,10.23c1.997,4.318 4.26,9.212 6.821,13.694c2.596,4.542 13.846,5.987 16.377,5.651c1.611,-0.215 3.252,0.501 4.279,1.871c1.24,1.655 1.395,3.867 0.42,6.069c-0.928,2.094 -3.406,3.011 -7.354,2.75c-0.263,-0.018 -0.57,-0.035 -0.916,-0.053c-4.752,-0.264 -17.373,-0.962 -23.373,-10.24c-2.479,-3.836 -5.42,-9.357 -7.205,-12.816l-0.064,0.87c-0.193,2.593 -0.379,5.185 -0.566,7.776l-0.102,1.434c-0.263,3.634 -0.519,7.271 -0.766,10.908c-0.115,1.678 -0.144,2.375 -0.175,3.143c-0.028,0.675 -0.057,1.403 -0.147,2.878c-0.033,0.53 -0.473,0.938 -0.998,0.938Z" style="fill:#692a5a;fill-rule:nonzero;"></path><path d="M99.623,25.067c-2.647,0 -4.904,-1.71 -5.009,-1.791c-0.438,-0.337 -0.52,-0.964 -0.183,-1.402c0.336,-0.439 0.963,-0.519 1.4,-0.185c0.022,0.018 2.25,1.686 4.422,1.328c1.052,-0.176 1.92,-0.798 2.654,-1.9c0.307,-0.46 0.927,-0.584 1.387,-0.277c0.46,0.306 0.584,0.927 0.278,1.387c-1.045,1.569 -2.393,2.499 -4.002,2.764c-0.319,0.053 -0.635,0.076 -0.947,0.076Z" style="fill:#692a5a;fill-rule:nonzero;"></path><path d="M88.48,18.413c-0.326,0 -0.647,-0.16 -0.838,-0.454c-0.302,-0.463 -0.172,-1.082 0.291,-1.384c4.199,-2.737 4.668,-8.901 4.672,-8.964c0.023,-0.34 0.217,-0.643 0.515,-0.807c0.298,-0.166 0.659,-0.167 0.959,-0.003c3.664,1.984 12.469,-0.505 15.553,-1.632c0.517,-0.189 1.092,0.077 1.281,0.596c0.191,0.518 -0.076,1.092 -0.595,1.283c-0.45,0.164 -10.293,3.721 -15.897,2.04c-0.4,2.239 -1.646,6.72 -5.396,9.163c-0.168,0.109 -0.358,0.162 -0.545,0.162Z" style="fill:#692a5a;fill-rule:nonzero;"></path><path d="M78.603,58.432c-0.385,0 -0.75,-0.222 -0.916,-0.596l-1.614,-3.65c-0.223,-0.505 0.004,-1.096 0.51,-1.32c0.503,-0.222 1.096,0.005 1.319,0.511l1.615,3.65c0.222,0.505 -0.006,1.096 -0.511,1.32c-0.132,0.057 -0.268,0.085 -0.403,0.085Z" style="fill:#692a5a;fill-rule:nonzero;"></path><path d="M119.088,58.53c-0.116,0 -0.234,-0.02 -0.349,-0.062c-0.517,-0.194 -0.781,-0.77 -0.587,-1.287l0.966,-2.594c0.193,-0.518 0.772,-0.776 1.286,-0.588c0.517,0.193 0.781,0.77 0.587,1.287l-0.966,2.594c-0.15,0.402 -0.532,0.65 -0.937,0.65Z" style="fill:#692a5a;fill-rule:nonzero;"></path></svg> 