<?xml version="1.0" encoding="UTF-8" standalone="no"?> <svg xmlns="http://www.w3.org/2000/svg" xmlns:xlink="http://www.w3.org/1999/xlink" xmlns:serif="http://www.serif.com/" width="100%" height="100%" viewBox="0 0 243 153" xml:space="preserve" style="fill-rule:evenodd;clip-rule:evenodd;stroke-linejoin:round;stroke-miterlimit:2;"><path d="M83.747,53.18c-0.225,0 -0.45,-0.075 -0.636,-0.228c-0.427,-0.352 -0.486,-0.982 -0.135,-1.408c0.302,-0.367 7.503,-8.969 16.617,-8.969c4.532,0 7.613,2.162 10.593,4.25c3.193,2.24 6.211,4.355 11.133,4.355c4.959,0 8.094,-2.238 11.123,-4.403c2.892,-2.065 5.883,-4.202 10.244,-4.202c8.818,0 16.291,8.589 16.606,8.953c0.359,0.419 0.312,1.051 -0.108,1.41c-0.417,0.361 -1.049,0.314 -1.41,-0.106c-0.07,-0.082 -7.195,-8.257 -15.088,-8.257c-3.721,0 -6.324,1.86 -9.081,3.829c-3.134,2.239 -6.686,4.776 -12.286,4.776c-5.552,0 -9.127,-2.506 -12.281,-4.716c-2.852,-1.999 -5.545,-3.889 -9.445,-3.889c-8.181,0 -15.006,8.159 -15.075,8.242c-0.197,0.238 -0.483,0.363 -0.771,0.363Z" style="fill:#018a3d;fill-rule:nonzero;"></path><path d="M83.747,42.424c-0.225,0 -0.45,-0.075 -0.636,-0.229c-0.427,-0.351 -0.486,-0.98 -0.135,-1.407c0.302,-0.366 7.503,-8.968 16.617,-8.968c4.532,0 7.613,2.161 10.593,4.25c3.193,2.239 6.211,4.354 11.133,4.354c4.959,0 8.094,-2.238 11.123,-4.403c2.892,-2.065 5.883,-4.201 10.244,-4.201c8.818,0 16.291,8.587 16.606,8.953c0.359,0.419 0.312,1.049 -0.108,1.409c-0.417,0.362 -1.049,0.314 -1.41,-0.107c-0.07,-0.081 -7.195,-8.255 -15.088,-8.255c-3.721,0 -6.324,1.859 -9.081,3.829c-3.134,2.238 -6.686,4.775 -12.286,4.775c-5.552,0 -9.127,-2.505 -12.281,-4.716c-2.852,-1.999 -5.545,-3.888 -9.445,-3.888c-8.181,0 -15.006,8.158 -15.075,8.241c-0.197,0.239 -0.483,0.363 -0.771,0.363Z" style="fill:#018a3d;fill-rule:nonzero;"></path><path d="M83.747,62.86c-0.225,0 -0.45,-0.076 -0.636,-0.228c-0.427,-0.353 -0.486,-0.982 -0.135,-1.409c0.302,-0.366 7.503,-8.967 16.617,-8.967c4.532,0 7.613,2.161 10.593,4.25c3.193,2.239 6.211,4.354 11.133,4.354c4.959,0 8.094,-2.238 11.123,-4.403c2.892,-2.066 5.883,-4.201 10.244,-4.201c8.818,0 16.291,8.587 16.606,8.953c0.359,0.419 0.312,1.049 -0.108,1.408c-0.417,0.361 -1.049,0.313 -1.41,-0.106c-0.07,-0.082 -7.195,-8.255 -15.088,-8.255c-3.721,0 -6.324,1.858 -9.081,3.829c-3.134,2.237 -6.686,4.775 -12.286,4.775c-5.552,0 -9.127,-2.506 -12.281,-4.717c-2.852,-1.999 -5.545,-3.887 -9.445,-3.887c-8.181,0 -15.006,8.158 -15.075,8.241c-0.197,0.239 -0.483,0.363 -0.771,0.363Z" style="fill:#018a3d;fill-rule:nonzero;"></path><path d="M209.208,127.893c-0.219,0 -0.44,-0.072 -0.624,-0.219c-0.431,-0.344 -0.501,-0.975 -0.155,-1.406c5.277,-6.599 10.306,-9.951 18.556,-12.365c0.533,-0.154 1.086,0.149 1.241,0.679c0.155,0.53 -0.149,1.086 -0.679,1.24c-7.909,2.314 -12.504,5.374 -17.557,11.696c-0.198,0.247 -0.489,0.375 -0.782,0.375Z" style="fill:#692a5a;fill-rule:nonzero;"></path><path d="M210.521,152.349c-0.308,0 -0.612,-0.141 -0.808,-0.41l-10.848,-14.853c-1.755,-1.226 -17.324,-12.156 -19.682,-15.529c-1.144,-1.639 -2.644,-5.338 -4.382,-9.62c-2.067,-5.097 -4.409,-10.875 -6.806,-14.906c-1.412,-2.374 -3.686,-4.668 -5.885,-6.884c-4.631,-4.673 -9.422,-9.504 -5.089,-14.707c2.341,-2.81 5.275,-4.357 8.485,-4.474c4.084,-0.153 7.669,2.003 9.655,4.064c2.511,2.608 7.572,9.965 10.443,14.237c-0.66,-8.259 -2.65,-28.073 -7.178,-38.822c-6.845,-16.255 -10.078,-22.422 -10.213,-22.676c-0.405,-0.771 -1.654,-4.331 -0.336,-7.658c0.864,-2.178 2.608,-3.731 5.186,-4.617c7.553,-2.618 10.91,5.467 14.158,13.282c3.22,7.745 15.648,38.709 15.774,39.022c0.205,0.511 -0.044,1.094 -0.557,1.3c-0.515,0.204 -1.096,-0.045 -1.3,-0.556c-0.125,-0.312 -12.549,-31.264 -15.763,-38.998c-3.662,-8.81 -6.274,-14.023 -11.66,-12.16c-2.002,0.687 -3.34,1.853 -3.978,3.464c-1.032,2.604 0,5.522 0.246,5.989c0.136,0.256 3.409,6.498 10.288,22.834c5.921,14.06 7.533,42.066 7.599,43.252c0.024,0.452 -0.257,0.864 -0.686,1.005c-0.43,0.139 -0.902,-0.024 -1.15,-0.402c-0.088,-0.135 -8.894,-13.559 -12.315,-17.107c-1.685,-1.751 -4.698,-3.561 -8.14,-3.453c-2.664,0.095 -5.025,1.358 -7.02,3.753c-3.017,3.623 -0.076,6.928 4.971,12.019c2.283,2.304 4.645,4.686 6.183,7.271c2.474,4.161 4.848,10.013 6.942,15.176c1.691,4.171 3.153,7.773 4.167,9.227c1.862,2.663 14.581,11.824 19.324,15.129c0.091,0.063 0.17,0.139 0.235,0.23l10.947,14.988c0.325,0.447 0.227,1.072 -0.218,1.397c-0.177,0.131 -0.384,0.193 -0.589,0.193Z" style="fill:#692a5a;fill-rule:nonzero;"></path><path d="M241.351,130.151c-0.28,0 -0.559,-0.118 -0.757,-0.346l-12.956,-14.945c-0.173,-0.201 -0.261,-0.462 -0.241,-0.727c0.013,-0.183 1.199,-18.541 -7.329,-37.41c-8.618,-19.072 -37.734,-67.814 -38.026,-68.302c-0.226,-0.408 -5.187,-9.201 -12.455,-5.503c-4.456,1.941 -5.643,4.687 -4.029,9.209c0.185,0.519 -0.086,1.091 -0.606,1.276c-0.519,0.188 -1.092,-0.083 -1.277,-0.604c-1.973,-5.525 -0.319,-9.349 5.058,-11.689c7.146,-3.644 12.971,2.536 15.043,6.315c0.275,0.459 29.45,49.299 38.114,68.473c8.02,17.744 7.651,35.059 7.524,37.956l12.692,14.642c0.361,0.418 0.316,1.049 -0.102,1.41c-0.188,0.164 -0.421,0.245 -0.653,0.245Z" style="fill:#692a5a;fill-rule:nonzero;"></path><path d="M33.142,127.893c-0.294,0 -0.584,-0.128 -0.782,-0.375c-5.054,-6.322 -9.648,-9.382 -17.556,-11.696c-0.532,-0.154 -0.835,-0.71 -0.679,-1.24c0.154,-0.53 0.713,-0.829 1.239,-0.679c8.251,2.414 13.282,5.766 18.558,12.365c0.345,0.431 0.275,1.062 -0.155,1.406c-0.186,0.147 -0.406,0.219 -0.625,0.219Z" style="fill:#692a5a;fill-rule:nonzero;"></path><path d="M31.829,152.349c-0.204,0 -0.412,-0.062 -0.589,-0.193c-0.447,-0.325 -0.544,-0.95 -0.218,-1.397l10.946,-14.988c0.066,-0.091 0.146,-0.167 0.236,-0.23c4.744,-3.305 17.462,-12.466 19.324,-15.13c1.014,-1.453 2.474,-5.055 4.167,-9.226c2.095,-5.163 4.468,-11.015 6.941,-15.175c1.539,-2.586 3.9,-4.968 6.184,-7.272c5.048,-5.091 7.989,-8.396 4.972,-12.019c-1.995,-2.395 -4.358,-3.658 -7.021,-3.753c-3.431,-0.123 -6.456,1.702 -8.142,3.452c-3.42,3.549 -12.224,16.973 -12.314,17.108c-0.247,0.378 -0.719,0.541 -1.148,0.402c-0.43,-0.141 -0.711,-0.553 -0.686,-1.005c0.065,-1.186 1.677,-29.192 7.6,-43.252c6.877,-16.336 10.15,-22.578 10.287,-22.835c0.245,-0.466 1.278,-3.384 0.245,-5.988c-0.637,-1.611 -1.975,-2.777 -3.977,-3.464c-5.386,-1.86 -7.998,3.35 -11.66,12.16c-3.216,7.734 -15.639,38.686 -15.764,38.998c-0.206,0.512 -0.789,0.763 -1.301,0.556c-0.512,-0.206 -0.761,-0.789 -0.555,-1.3c0.125,-0.313 12.553,-31.277 15.773,-39.022c3.247,-7.815 6.606,-15.892 14.16,-13.282c2.575,0.886 4.32,2.439 5.183,4.617c1.32,3.327 0.07,6.887 -0.336,7.657c-0.135,0.255 -3.368,6.422 -10.214,22.677c-4.525,10.749 -6.516,30.563 -7.176,38.822c2.871,-4.272 7.93,-11.629 10.444,-14.238c1.985,-2.059 5.562,-4.2 9.652,-4.063c3.212,0.117 6.146,1.664 8.487,4.474c4.332,5.203 -0.457,10.034 -5.089,14.707c-2.198,2.216 -4.472,4.51 -5.885,6.885c-2.396,4.03 -4.739,9.808 -6.807,14.905c-1.737,4.282 -3.237,7.981 -4.38,9.618c-2.359,3.375 -17.928,14.305 -19.683,15.531l-10.847,14.853c-0.196,0.268 -0.5,0.41 -0.809,0.41Z" style="fill:#692a5a;fill-rule:nonzero;"></path><path d="M1,130.151c-0.233,0 -0.466,-0.081 -0.656,-0.245c-0.417,-0.361 -0.461,-0.992 -0.1,-1.41l12.692,-14.642c-0.127,-2.897 -0.496,-20.212 7.523,-37.956c8.666,-19.174 37.838,-68.014 38.133,-68.505c2.055,-3.746 7.877,-9.93 15.079,-6.257c5.322,2.314 6.977,6.138 5.005,11.663c-0.185,0.521 -0.758,0.792 -1.279,0.604c-0.52,-0.185 -0.791,-0.757 -0.605,-1.276c1.615,-4.522 0.425,-7.268 -3.974,-9.183c-7.318,-3.729 -12.284,5.067 -12.492,5.446c-0.312,0.519 -29.427,49.262 -38.044,68.333c-8.53,18.869 -7.342,37.227 -7.328,37.41c0.017,0.265 -0.069,0.526 -0.242,0.727l-12.957,14.945c-0.197,0.228 -0.476,0.346 -0.755,0.346Z" style="fill:#692a5a;fill-rule:nonzero;"></path></svg> 