<?xml version="1.0" encoding="UTF-8" standalone="no"?> <svg xmlns="http://www.w3.org/2000/svg" xmlns:xlink="http://www.w3.org/1999/xlink" xmlns:serif="http://www.serif.com/" width="100%" height="100%" viewBox="0 0 133 95" xml:space="preserve" style="fill-rule:evenodd;clip-rule:evenodd;stroke-linejoin:round;stroke-miterlimit:2;"><path d="M66.427,94.231l-0.211,0c-0.387,0 -0.739,-0.224 -0.905,-0.574c-0.047,-0.102 -0.077,-0.208 -0.089,-0.317c-37.409,-45.92 -4.089,-87.688 0.005,-92.49c0.014,-0.085 0.038,-0.17 0.075,-0.252c0.158,-0.363 0.516,-0.598 0.914,-0.598l0.211,0c0.396,0 0.755,0.235 0.914,0.598c0.036,0.082 0.059,0.167 0.074,0.252c4.093,4.802 37.415,46.57 0.005,92.49c-0.012,0.109 -0.042,0.215 -0.089,0.317c-0.165,0.35 -0.518,0.574 -0.904,0.574Zm-0.107,-91.572c-5.341,6.477 -34.636,45.694 0,88.859c34.638,-43.165 5.344,-82.382 0,-88.859Z" style="fill:#692a5a;fill-rule:nonzero;"></path><path d="M66.365,94.379c-0.261,0 -0.517,-0.101 -0.707,-0.293l-0.149,-0.148c-0.275,-0.274 -0.365,-0.681 -0.234,-1.045c0.038,-0.107 0.093,-0.203 0.161,-0.288c6.023,-58.909 59.112,-64.895 65.402,-65.396c0.07,-0.051 0.146,-0.093 0.229,-0.127c0.369,-0.143 0.789,-0.056 1.07,0.224l0.15,0.148c0.28,0.281 0.37,0.701 0.225,1.071c-0.032,0.084 -0.076,0.162 -0.128,0.231c-0.501,6.296 -6.487,59.381 -65.393,65.404c-0.086,0.067 -0.182,0.123 -0.287,0.161c-0.112,0.039 -0.226,0.058 -0.339,0.058Zm63.968,-65.118c-8.358,0.803 -56.801,7.821 -62.831,62.833c55.012,-6.03 62.028,-54.475 62.831,-62.833Z" style="fill:#692a5a;fill-rule:nonzero;"></path><path d="M66.216,94.231c-0.114,0 -0.228,-0.02 -0.339,-0.059c-0.105,-0.038 -0.202,-0.094 -0.287,-0.161c-58.91,-6.022 -64.895,-59.113 -65.395,-65.403c-0.05,-0.071 -0.093,-0.148 -0.127,-0.231c-0.144,-0.37 -0.056,-0.79 0.225,-1.07l0.148,-0.148c0.282,-0.282 0.7,-0.37 1.071,-0.225c0.083,0.032 0.16,0.075 0.231,0.127c6.289,0.501 59.379,6.484 65.402,65.395c0.068,0.085 0.123,0.182 0.16,0.288c0.132,0.365 0.041,0.772 -0.234,1.045l-0.148,0.149c-0.191,0.19 -0.446,0.293 -0.707,0.293Zm-63.968,-65.118c0.801,8.357 7.818,56.802 62.832,62.833c-6.031,-55.013 -54.474,-62.032 -62.832,-62.833Z" style="fill:#692a5a;fill-rule:nonzero;"></path><path d="M66.216,94.231c-0.237,0 -0.473,-0.085 -0.659,-0.248c-0.084,-0.074 -0.155,-0.161 -0.209,-0.256c-52.617,-27.18 -38.737,-78.777 -36.9,-84.809c-0.021,-0.083 -0.033,-0.169 -0.033,-0.258c0.001,-0.396 0.235,-0.754 0.599,-0.914l0.192,-0.084c0.364,-0.159 0.788,-0.085 1.079,0.182c0.065,0.061 0.122,0.129 0.169,0.203c5.67,2.769 52.89,27.77 36.909,84.803c0.033,0.104 0.049,0.214 0.046,0.326c-0.012,0.387 -0.245,0.733 -0.6,0.887l-0.193,0.084c-0.129,0.056 -0.264,0.084 -0.4,0.084Zm-36.044,-84.09c-2.315,8.071 -13.525,55.72 35.457,81.477c14.536,-53.401 -27.974,-77.67 -35.457,-81.477Z" style="fill:#018a3d;fill-rule:nonzero;"></path><path d="M66.409,94.315c-0.136,0 -0.272,-0.028 -0.401,-0.084l-0.192,-0.084c-0.353,-0.154 -0.586,-0.497 -0.599,-0.882c-0.004,-0.109 0.01,-0.217 0.041,-0.319c-16.541,-56.862 30.409,-82.331 36.066,-85.165c0.046,-0.077 0.103,-0.147 0.171,-0.21c0.291,-0.272 0.716,-0.345 1.082,-0.187l0.193,0.084c0.361,0.157 0.598,0.514 0.602,0.908c0,0.088 -0.012,0.174 -0.032,0.256c1.894,6.013 16.282,57.472 -36.057,85.168c-0.054,0.098 -0.125,0.188 -0.213,0.264c-0.186,0.165 -0.422,0.251 -0.661,0.251Zm35.219,-84.444c-7.446,3.881 -49.711,28.57 -34.649,81.825c48.721,-26.24 37.043,-73.777 34.649,-81.825Z" style="fill:#018a3d;fill-rule:nonzero;"></path></svg> 